<?xml version="1.0" encoding="UTF-8" standalone="no"?>
<!DOCTYPE svg PUBLIC "-//W3C//DTD SVG 1.1//EN" "http://www.w3.org/Graphics/SVG/1.1/DTD/svg11.dtd">
<!-- Created with Vectornator (http://vectornator.io/) -->
<svg height="100%" stroke-miterlimit="10" style="fill-rule:nonzero;clip-rule:evenodd;stroke-linecap:round;stroke-linejoin:round;" version="1.1" viewBox="0 0 1024 1024" width="100%" xml:space="preserve" xmlns="http://www.w3.org/2000/svg" xmlns:vectornator="http://vectornator.io" xmlns:xlink="http://www.w3.org/1999/xlink">
<defs/>
<g id="Layer-2" vectornator:layerName="Layer 2">
<path d="M484.009 618.539C484.009 618.539 534.892 608.23 543.003 577.275C552.223 542.089 535.676 513.896 496.056 486.795C456.435 459.694 415.146 464.289 384.52 468.87C330.537 440.368 292.105 341.987 324.654 312.885C400.822 244.781 557.274 463.658 557.274 463.658L610.576 447.815C610.576 447.815 710.661 413.675 725.427 478.167C736.884 528.213 665.794 569.305 621.206 592.474C620.409 589.014 623.563 706.556 536.317 737.021C358.68 799.049 256.876 596.572 316.087 543.632C404.074 464.964 528.49 612.172 471.345 652.049C428.87 681.688 373.454 623.629 373.454 623.629" fill="none" opacity="1" stroke="#1301df" stroke-linecap="butt" stroke-linejoin="round" stroke-width="34.727" vectornator:layerName="Curve 1"/>
</g>
<g id="Layer-3" vectornator:layerName="Layer 3">
<path d="M535.858 303.031C538.833 308.902 540.801 313.128 541.762 315.71C542.722 318.292 542.987 320.963 542.556 323.721C542.124 326.48 540.944 329.029 539.015 331.367C537.085 333.706 534.472 335.71 531.176 337.381C528.049 338.966 524.981 339.878 521.972 340.117C518.964 340.357 516.184 339.838 513.632 338.561C511.079 337.284 509.049 335.516 507.541 333.256C506.033 330.997 503.755 326.859 500.707 320.845L495.641 310.848C492.666 304.977 490.698 300.751 489.737 298.169C488.776 295.587 488.512 292.916 488.943 290.158C489.374 287.399 490.555 284.85 492.484 282.512C494.414 280.173 497.026 278.169 500.323 276.498C503.45 274.913 506.518 274.001 509.527 273.762C512.535 273.522 515.315 274.041 517.867 275.318C520.419 276.595 522.449 278.363 523.957 280.623C525.465 282.882 527.744 287.02 530.792 293.034L535.858 303.031ZM510.935 291.531C509.557 288.813 508.525 287.151 507.841 286.545C507.156 285.94 506.344 285.875 505.406 286.35C504.612 286.753 504.16 287.367 504.05 288.194C503.94 289.021 504.647 290.938 506.171 293.946L519.997 321.229C521.716 324.621 522.916 326.644 523.595 327.298C524.274 327.952 525.118 328.023 526.129 327.51C527.163 326.986 527.593 326.194 527.419 325.133C527.244 324.073 526.285 321.822 524.542 318.382L510.935 291.531Z" fill="#fec11a" opacity="1" stroke="none" vectornator:layerName="Text 1"/>
<path d="M644.461 277.494L624.89 301.716L622.188 339.1L605.723 332.882L609.21 304.184L599.289 330.452L583.355 324.433L606.498 263.156L622.433 269.174L613.441 292.981L629.511 271.847L644.461 277.494Z" fill="#fec11a" opacity="1" stroke="none" vectornator:layerName="Text 1"/>
<path d="M705.781 370.055L665.453 387.083C660.881 389.014 657.606 390.221 655.629 390.704C653.652 391.188 651.379 391.108 648.809 390.466C646.239 389.823 643.945 388.516 641.926 386.543C639.907 384.57 638.211 381.956 636.836 378.701C635.315 375.098 634.568 371.665 634.597 368.403C634.625 365.142 635.307 362.424 636.643 360.249C637.979 358.074 639.657 356.414 641.677 355.269C643.697 354.123 648.111 352.113 654.919 349.238L690.626 334.162L697.251 349.853L652.003 368.959C649.369 370.071 647.746 370.925 647.133 371.52C646.521 372.115 646.399 372.848 646.766 373.718C647.185 374.711 647.859 375.181 648.788 375.126C649.716 375.07 651.683 374.408 654.69 373.138L699.156 354.363L705.781 370.055Z" fill="#fec11a" opacity="1" stroke="none" vectornator:layerName="Text 2"/>
</g>
</svg>
